HIERARCHY
ROOT Hips
{
	OFFSET 0.000000 83.214638 0.000000
	CHANNELS 6 Xposition Yposition Zposition Xrotation Yrotation Zrotation
	JOINT Pelvis
	{
		OFFSET 0.000000 0.000000 0.000000
		CHANNELS 3 Xrotation Yrotation Zrotation
		JOINT LeftUpLeg
		{
			OFFSET 8.479700 -4.795502 -0.379100
			CHANNELS 3 Xrotation Yrotation Zrotation
			JOINT LeftLeg
			{
				OFFSET 0.024144 -32.555107 0.112900
				CHANNELS 3 Xrotation Yrotation Zrotation
				JOINT LeftFoot
				{
					OFFSET -0.024144 -32.638630 -3.012600
					CHANNELS 3 Xrotation Yrotation Zrotation
					JOINT LeftToeBase
					{
						OFFSET 0.970200 -13.225400 11.864200
						CHANNELS 3 Xrotation Yrotation Zrotation
						End Site
						{
							OFFSET 0.000000 12.319262 0.000000
						}
					}
					JOINT LFootTongue
					{
						OFFSET 1.142400 -1.059800 6.665200
						CHANNELS 3 Xrotation Yrotation Zrotation
						End Site
						{
							OFFSET 0.000000 12.319262 0.000000
						}
					}
				}
				JOINT LeftPantLeg
				{
					OFFSET 0.918482 -16.533964 -2.284700
					CHANNELS 3 Xrotation Yrotation Zrotation
					End Site
					{
						OFFSET 0.350399 24.744368 0.000000
					}
				}
			}
		}
		JOINT RightUpLeg
		{
			OFFSET -8.479700 -4.795502 -0.379100
			CHANNELS 3 Xrotation Yrotation Zrotation
			JOINT RightLeg
			{
				OFFSET -0.023144 -32.555092 0.112900
				CHANNELS 3 Xrotation Yrotation Zrotation
				JOINT RightFoot
				{
					OFFSET 0.023144 -32.638641 -3.012700
					CHANNELS 3 Xrotation Yrotation Zrotation
					JOINT RightToeBase
					{
						OFFSET -0.970200 -13.225400 11.864200
						CHANNELS 3 Xrotation Yrotation Zrotation
						End Site
						{
							OFFSET 0.000000 12.319244 0.000000
						}
					}
					JOINT RFootTongue
					{
						OFFSET -1.142200 -1.059800 6.665200
						CHANNELS 3 Xrotation Yrotation Zrotation
						End Site
						{
							OFFSET 0.000000 12.319243 0.000000
						}
					}
				}
				JOINT RightPantLeg
				{
					OFFSET -0.919482 -16.533978 -2.284800
					CHANNELS 3 Xrotation Yrotation Zrotation
					End Site
					{
						OFFSET -0.350400 24.744419 0.000000
					}
				}
			}
		}
	}
	JOINT Spine
	{
		OFFSET 0.000000 7.722000 1.166200
		CHANNELS 3 Xrotation Yrotation Zrotation
		JOINT Spine1
		{
			OFFSET 0.000000 12.024101 0.248800
			CHANNELS 3 Xrotation Yrotation Zrotation
			JOINT Spine2
			{
				OFFSET 0.000000 11.502998 -0.491200
				CHANNELS 3 Xrotation Yrotation Zrotation
				JOINT Neck
				{
					OFFSET 0.000000 18.430702 -3.123100
					CHANNELS 3 Xrotation Yrotation Zrotation
					JOINT Head
					{
						OFFSET 0.000000 9.051102 1.034000
						CHANNELS 3 Xrotation Yrotation Zrotation
						JOINT HairB
						{
							OFFSET 0.208400 24.786102 24.822300
							CHANNELS 3 Xrotation Yrotation Zrotation
							End Site
							{
								OFFSET 0.000000 32.263779 0.000000
							}
						}
						JOINT HairA
						{
							OFFSET -7.081100 24.428299 23.196600
							CHANNELS 3 Xrotation Yrotation Zrotation
							End Site
							{
								OFFSET 0.000000 32.263779 0.000000
							}
						}
						JOINT Hat
						{
							OFFSET 16.728800 15.048294 -15.439601
							CHANNELS 3 Xrotation Yrotation Zrotation
							End Site
							{
								OFFSET 0.000000 32.263779 0.000000
							}
						}
					}
				}
				JOINT LeftShoulder
				{
					OFFSET 6.197800 13.665199 -4.064700
					CHANNELS 3 Xrotation Yrotation Zrotation
					JOINT LeftArm
					{
						OFFSET 7.778100 -0.187103 -1.709300
						CHANNELS 3 Xrotation Yrotation Zrotation
						JOINT LeftForeArm
						{
							OFFSET 22.049376 0.000000 0.000000
							CHANNELS 3 Xrotation Yrotation Zrotation
							JOINT LeftHand
							{
								OFFSET 23.009392 0.000000 0.000000
								CHANNELS 3 Xrotation Yrotation Zrotation
								JOINT LeftHandThumb1
								{
									OFFSET 3.507191 -2.063065 3.133727
									CHANNELS 3 Xrotation Yrotation Zrotation
									JOINT LeftHandThumb2
									{
										OFFSET 3.101337 -1.790558 1.790558
										CHANNELS 3 Xrotation Yrotation Zrotation
										JOINT LeftHandThumb3
										{
											OFFSET 3.058640 -1.765907 1.765906
											CHANNELS 3 Xrotation Yrotation Zrotation
											End Site
											{
												OFFSET -0.415260 3.926476 -0.049563
											}
										}
									}
								}
								JOINT LeftHandIndex1
								{
									OFFSET 11.334419 -0.901459 3.706815
									CHANNELS 3 Xrotation Yrotation Zrotation
									JOINT LeftHandIndex2
									{
										OFFSET 3.283112 0.000000 0.000000
										CHANNELS 3 Xrotation Yrotation Zrotation
										JOINT LeftHandIndex3
										{
											OFFSET 3.323853 0.000000 0.000000
											CHANNELS 3 Xrotation Yrotation Zrotation
											End Site
											{
												OFFSET -1.135597 3.097809 0.402452
											}
										}
									}
								}
								JOINT LeftHandMiddle1
								{
									OFFSET 11.335861 0.000000 0.000000
									CHANNELS 3 Xrotation Yrotation Zrotation
									JOINT LeftHandMiddle2
									{
										OFFSET 3.410492 0.000000 0.000000
										CHANNELS 3 Xrotation Yrotation Zrotation
										JOINT LeftHandMiddle3
										{
											OFFSET 3.312172 0.000000 0.000000
											CHANNELS 3 Xrotation Yrotation Zrotation
											End Site
											{
												OFFSET -1.150200 3.080154 0.400270
											}
										}
									}
								}
								JOINT LeftHandRing1
								{
									OFFSET 11.514786 -0.013176 -3.003090
									CHANNELS 3 Xrotation Yrotation Zrotation
									JOINT LeftHandRing2
									{
										OFFSET 3.053307 0.000000 0.000000
										CHANNELS 3 Xrotation Yrotation Zrotation
										JOINT LeftHandRing3
										{
											OFFSET 3.295807 0.000000 0.000000
											CHANNELS 3 Xrotation Yrotation Zrotation
											End Site
											{
												OFFSET -1.281006 3.013344 0.375733
											}
										}
									}
								}
								JOINT LeftHandPinky1
								{
									OFFSET 10.518692 -0.960396 -5.730441
									CHANNELS 3 Xrotation Yrotation Zrotation
									JOINT LeftHandPinky2
									{
										OFFSET 2.861649 0.000000 0.000000
										CHANNELS 3 Xrotation Yrotation Zrotation
										JOINT LeftHandPinky3
										{
											OFFSET 2.863380 0.000000 0.000000
											CHANNELS 3 Xrotation Yrotation Zrotation
											End Site
											{
												OFFSET -0.843597 2.711159 0.369971
											}
										}
									}
								}
							}
							JOINT LSleeve
							{
								OFFSET 6.676277 -0.344902 -1.011730
								CHANNELS 3 Xrotation Yrotation Zrotation
								End Site
								{
									OFFSET 0.000000 14.885353 0.000000
								}
							}
						}
					}
				}
				JOINT RightShoulder
				{
					OFFSET -6.197800 13.665199 -4.064700
					CHANNELS 3 Xrotation Yrotation Zrotation
					JOINT RightArm
					{
						OFFSET -7.778100 -0.187103 -1.709300
						CHANNELS 3 Xrotation Yrotation Zrotation
						JOINT RightForeArm
						{
							OFFSET -22.049376 0.000000 0.000000
							CHANNELS 3 Xrotation Yrotation Zrotation
							JOINT RightHand
							{
								OFFSET -23.009392 0.000000 0.000000
								CHANNELS 3 Xrotation Yrotation Zrotation
								JOINT RightHandThumb1
								{
									OFFSET -3.507191 -2.063065 3.133727
									CHANNELS 3 Xrotation Yrotation Zrotation
									JOINT RightHandThumb2
									{
										OFFSET -3.101337 -1.790558 1.790558
										CHANNELS 3 Xrotation Yrotation Zrotation
										JOINT RightHandThumb3
										{
											OFFSET -3.058640 -1.765907 1.765906
											CHANNELS 3 Xrotation Yrotation Zrotation
											End Site
											{
												OFFSET 0.415260 3.926476 -0.049563
											}
										}
									}
								}
								JOINT RightHandIndex1
								{
									OFFSET -11.334419 -0.901459 3.706815
									CHANNELS 3 Xrotation Yrotation Zrotation
									JOINT RightHandIndex2
									{
										OFFSET -3.283112 0.000000 0.000000
										CHANNELS 3 Xrotation Yrotation Zrotation
										JOINT RightHandIndex3
										{
											OFFSET -3.323853 0.000000 0.000000
											CHANNELS 3 Xrotation Yrotation Zrotation
											End Site
											{
												OFFSET 1.135597 3.097809 0.402452
											}
										}
									}
								}
								JOINT RightHandMiddle1
								{
									OFFSET -11.335861 0.000000 0.000000
									CHANNELS 3 Xrotation Yrotation Zrotation
									JOINT RightHandMiddle2
									{
										OFFSET -3.410492 0.000000 0.000000
										CHANNELS 3 Xrotation Yrotation Zrotation
										JOINT RightHandMiddle3
										{
											OFFSET -3.312172 0.000000 0.000000
											CHANNELS 3 Xrotation Yrotation Zrotation
											End Site
											{
												OFFSET 1.150200 3.080154 0.400270
											}
										}
									}
								}
								JOINT RightHandRing1
								{
									OFFSET -11.514786 -0.013176 -3.003090
									CHANNELS 3 Xrotation Yrotation Zrotation
									JOINT RightHandRing2
									{
										OFFSET -3.053307 0.000000 0.000000
										CHANNELS 3 Xrotation Yrotation Zrotation
										JOINT RightHandRing3
										{
											OFFSET -3.295807 0.000000 0.000000
											CHANNELS 3 Xrotation Yrotation Zrotation
											End Site
											{
												OFFSET 1.281006 3.013344 0.375733
											}
										}
									}
								}
								JOINT RightHandPinky1
								{
									OFFSET -10.518692 -0.960396 -5.730441
									CHANNELS 3 Xrotation Yrotation Zrotation
									JOINT RightHandPinky2
									{
										OFFSET -2.861649 0.000000 0.000000
										CHANNELS 3 Xrotation Yrotation Zrotation
										JOINT RightHandPinky3
										{
											OFFSET -2.863380 0.000000 0.000000
											CHANNELS 3 Xrotation Yrotation Zrotation
											End Site
											{
												OFFSET 0.843597 2.711159 0.369971
											}
										}
									}
								}
							}
							JOINT RSleeve
							{
								OFFSET -6.676277 -0.344902 -1.011730
								CHANNELS 3 Xrotation Yrotation Zrotation
								End Site
								{
									OFFSET 0.000000 14.885353 0.000000
								}
							}
						}
					}
				}
				JOINT Backpack
				{
					OFFSET 0.000000 -2.471497 36.677502
					CHANNELS 3 Xrotation Yrotation Zrotation
					End Site
					{
						OFFSET 0.000000 20.427315 0.000000
					}
				}
				JOINT Hood
				{
					OFFSET 0.000000 18.754097 -10.431000
					CHANNELS 3 Xrotation Yrotation Zrotation
					JOINT Hood1
					{
						OFFSET 0.000000 -5.011002 -7.685901
						CHANNELS 3 Xrotation Yrotation Zrotation
						End Site
						{
							OFFSET 0.000000 9.175140 0.000000
						}
					}
				}
				JOINT LHoodieString
				{
					OFFSET 5.250500 16.397697 3.089900
					CHANNELS 3 Xrotation Yrotation Zrotation
					JOINT LHoodieString1
					{
						OFFSET 0.257700 -6.364304 3.694600
						CHANNELS 3 Xrotation Yrotation Zrotation
						JOINT LHoodieString2
						{
							OFFSET 0.000000 -9.643799 2.679100
							CHANNELS 3 Xrotation Yrotation Zrotation
							End Site
							{
								OFFSET 0.000000 10.009018 0.000000
							}
						}
					}
				}
				JOINT RHoodieString
				{
					OFFSET -5.250500 16.397697 3.089900
					CHANNELS 3 Xrotation Yrotation Zrotation
					JOINT RHoodieString1
					{
						OFFSET -0.257700 -6.364304 3.694600
						CHANNELS 3 Xrotation Yrotation Zrotation
						JOINT RHoodieString2
						{
							OFFSET 0.000000 -9.643799 2.679100
							CHANNELS 3 Xrotation Yrotation Zrotation
							End Site
							{
								OFFSET 0.000000 10.009018 0.000000
							}
						}
					}
				}
			}
			JOINT LBackpack_Strap
			{
				OFFSET 15.223200 -7.719803 -6.610900
				CHANNELS 3 Xrotation Yrotation Zrotation
				End Site
				{
					OFFSET 0.000000 16.040596 0.000000
				}
			}
			JOINT RBackpack_Strap
			{
				OFFSET -15.223000 -7.719803 -6.610900
				CHANNELS 3 Xrotation Yrotation Zrotation
				End Site
				{
					OFFSET 0.000000 16.040596 0.000000
				}
			}
		}
	}
	JOINT BoyFacialAnim_Joint
	{
		OFFSET 1.000000 -82.208099 -1.550900
		CHANNELS 3 Xrotation Yrotation Zrotation
		End Site
		{
			OFFSET 0.000000 30.012791 0.000000
		}
	}
}
MOTION
Frames: 4
Frame Time: 0.033333
-3.918114 80.370132 3.264327 -3.658093 0.315280 -2.984019 0.000000 0.000000 0.000000 -13.977125 16.636054 18.572565 26.566444 2.159510 0.250581 -9.293853 3.650821 -10.043523 -0.000000 -0.000000 0.000000 -0.000000 -0.000000 -0.000000 -0.000000 -0.000002 0.000000 -5.682456 7.512935 3.461562 24.580485 -9.108973 5.922047 -16.569045 -24.974945 -2.747101 0.000000 0.000000 -0.000000 0.000000 0.000000 -0.000000 0.000000 -0.000000 -0.000000 11.318207 1.933859 8.630789 -0.031922 0.202554 -1.513438 -0.026316 0.170016 -1.518036 1.740426 -2.566117 1.231070 -21.211779 -11.353809 -0.735596 -0.000000 -0.000001 0.000000 -0.000000 -0.000001 0.000000 -0.000000 -0.000001 0.000000 0.970189 -14.217733 -6.296929 -18.394065 31.748444 -48.923702 0.001567 -94.783867 0.001618 -46.026688 -5.667209 -1.428311 -10.634088 -9.125218 25.668981 8.204562 20.993046 2.970814 0.000003 -0.000001 0.000002 0.139875 -3.876487 2.041762 0.015328 0.459971 -3.814439 -0.000000 -0.000001 -0.000000 -0.142398 -1.756115 -3.801928 0.019996 0.525591 -4.359523 0.000001 -0.000002 -0.000002 -0.138686 0.711039 -15.997826 0.038457 0.728239 -6.045967 -0.000000 0.000001 -0.000004 2.761641 6.937692 -30.830128 0.002277 -3.582710 -4.421463 -0.000000 0.000000 0.000002 -0.000000 0.000001 0.000000 0.804531 -0.538693 14.981958 -19.992684 -11.815769 37.999812 0.001483 87.034287 -0.001488 -60.971842 17.032632 -3.056934 -8.175259 2.457333 -18.016371 4.041867 -6.809652 0.140587 0.000001 -0.000001 0.000003 0.123034 4.713619 -0.767149 0.231565 -1.782890 14.798377 -0.000003 -0.000000 0.000005 -0.065321 1.717950 1.402785 0.268575 -1.917472 15.945073 0.000003 0.000001 0.000002 0.094923 -1.524171 8.774513 0.706590 -3.058928 26.008338 -0.000000 0.000002 0.000004 1.263533 -5.129783 19.541019 1.425818 -4.223300 37.296279 0.000000 -0.000004 0.000003 0.000001 -0.000000 0.000001 0.000001 0.000000 0.000000 0.000001 0.000000 0.000000 0.000001 0.000000 0.000000 0.000001 0.000000 0.000000 0.000001 0.000000 0.000000 0.000000 -0.000000 0.000000 0.000001 0.000000 0.000000 0.000001 0.000000 0.000000 0.000000 -0.000000 0.000000 -0.000001 0.000000 -0.000000 -0.000001 0.000000 -0.000000 0.000000 0.000000 0.000000 
-3.911284 80.349838 3.330033 -3.808062 0.338550 -2.989924 0.000000 0.000000 -0.000000 -13.850085 16.658370 18.596249 26.714250 2.173498 0.275725 -9.428313 3.613158 -10.038863 -0.000000 -0.000000 0.000000 -0.000000 -0.000000 -0.000000 -0.000001 -0.000001 -0.000001 -5.507569 7.568216 3.496189 24.660347 -9.107294 5.900164 -16.674968 -25.038854 -2.727352 -0.000000 0.000000 -0.000000 -0.000000 0.000000 -0.000000 0.000001 -0.000000 -0.000000 11.156871 1.916483 8.614924 -0.026453 0.202869 -1.532745 -0.020806 0.169431 -1.537293 1.751671 -2.601561 1.299434 -20.963312 -11.526135 -0.625607 -0.000001 0.000000 -0.000000 -0.000001 0.000000 -0.000000 -0.000001 0.000000 -0.000000 0.970706 -13.917657 -6.164928 -16.770237 31.352696 -49.838579 0.001270 -94.769285 0.001320 -45.575926 -5.769145 -1.523549 -10.633468 -9.051064 25.373275 8.045056 20.482320 2.901068 -0.000001 -0.000001 -0.000004 0.152713 -3.860113 2.291493 0.015346 0.460627 -3.819832 -0.000000 0.000000 -0.000002 -0.129401 -1.753944 -3.553850 0.020460 0.531335 -4.407291 -0.000000 -0.000003 -0.000004 -0.131027 0.700700 -15.700370 0.039711 0.740090 -6.144793 -0.000001 0.000000 0.000005 2.727782 6.935545 -30.391883 0.005336 -3.544487 -4.738927 -0.000001 0.000001 0.000002 -0.000003 -0.000001 -0.000002 0.816494 -0.780723 15.014346 -18.993716 -11.753931 38.189531 0.000317 87.055112 -0.000334 -60.884778 17.114605 -2.878805 -8.167542 2.349649 -18.024668 4.002747 -6.697406 0.164635 -0.000004 -0.000001 0.000004 0.113253 4.700660 -0.510857 0.211102 -1.703586 14.125746 -0.000003 -0.000001 -0.000000 -0.055589 1.663416 1.637023 0.256267 -1.873853 15.572659 0.000002 0.000000 -0.000000 0.119518 -1.591257 8.721478 0.704620 -3.054867 25.971233 -0.000002 -0.000001 0.000002 1.337354 -5.252449 19.519149 1.440020 -4.241809 37.488610 0.000002 0.000001 0.000002 -0.000001 -0.000000 -0.000000 0.000000 0.000000 0.000000 0.000000 0.000000 0.000000 0.000000 0.000000 0.000000 0.000000 0.000000 0.000000 0.000000 0.000000 0.000000 -0.000001 -0.000000 0.000000 0.000000 0.000000 0.000000 0.000000 0.000000 0.000000 -0.000001 -0.000000 0.000000 0.000001 -0.000000 -0.000000 0.000001 -0.000000 -0.000000 0.000000 0.000000 -0.000000 
-3.901483 80.321648 3.388067 -3.982985 0.350397 -2.984419 0.000000 0.000000 0.000000 -13.666426 16.704532 18.624322 26.802531 2.178370 0.296999 -9.532769 3.572745 -10.163911 -0.000000 -0.000000 -0.000000 -0.000000 -0.000000 -0.000000 -0.000001 0.000001 0.000001 -5.342410 7.603193 3.499580 24.809849 -9.092930 5.906961 -16.811192 -25.083409 -2.712608 0.000000 0.000000 0.000000 0.000000 0.000000 0.000000 0.000000 -0.000000 0.000000 11.049467 1.902220 8.565597 -0.026777 0.203857 -1.533979 -0.021112 0.169795 -1.538519 1.764259 -2.636965 1.319406 -20.713940 -11.746721 -0.490870 0.000000 -0.000000 0.000000 0.000000 -0.000000 0.000000 0.000000 -0.000000 0.000000 0.973391 -13.730957 -6.058833 -15.073135 30.950364 -50.788153 0.002270 -94.487724 0.002365 -44.780131 -5.832141 -1.533658 -10.724483 -9.269454 25.304143 7.922842 20.092354 2.847797 0.000001 0.000001 -0.000007 0.147410 -3.808943 2.280815 0.015348 0.460323 -3.817423 -0.000003 0.000001 -0.000002 -0.120275 -1.725276 -3.406787 0.020274 0.529257 -4.390049 -0.000001 0.000001 0.000000 -0.117579 0.707658 -15.330974 0.038334 0.727066 -6.036111 -0.000000 -0.000001 0.000001 2.687906 6.951630 -29.701597 0.004789 -3.551094 -4.683991 0.000001 -0.000002 -0.000004 0.000002 0.000001 0.000002 0.827253 -0.989361 15.044648 -17.873371 -11.716933 38.518818 0.000664 86.957440 -0.000708 -60.510101 16.929425 -2.754298 -8.088127 1.918505 -17.989670 3.787640 -6.080222 0.297943 0.000002 0.000003 -0.000002 0.104459 4.705646 -0.292058 0.187289 -1.606144 13.302049 -0.000004 -0.000001 0.000005 -0.045420 1.613833 1.740498 0.239363 -1.812205 15.047593 0.000002 -0.000001 -0.000004 0.147141 -1.692156 8.631864 0.698580 -3.042457 25.857744 -0.000000 0.000004 0.000003 1.428059 -5.425115 19.330419 1.458292 -4.265509 37.735289 -0.000001 0.000001 0.000000 -0.000000 0.000001 0.000002 0.000000 0.000000 0.000000 0.000000 0.000000 0.000000 0.000000 0.000000 0.000000 0.000000 0.000000 0.000000 0.000000 0.000000 0.000000 0.000000 -0.000000 0.000000 0.000000 0.000000 0.000000 0.000000 0.000000 0.000000 0.000000 -0.000000 0.000000 0.000000 0.000000 -0.000001 0.000000 0.000000 -0.000001 0.000000 0.000000 0.000000 
-3.894401 80.290161 3.444547 -4.150011 0.345914 -2.977321 -0.000000 0.000000 -0.000000 -13.350170 16.773964 18.647318 26.637927 2.158322 0.345584 -9.506998 3.599775 -10.652158 0.000000 -0.000000 -0.000000 0.000000 -0.000000 -0.000000 -0.000000 -0.000002 0.000000 -5.193853 7.614957 3.485542 24.982047 -9.063669 5.926962 -16.956054 -25.065071 -2.699402 0.000000 -0.000002 -0.000000 0.000000 -0.000002 -0.000000 0.000001 -0.000000 0.000000 10.955170 1.897248 8.473209 -0.023272 0.204204 -1.510774 -0.017566 0.171677 -1.515304 1.741175 -2.680519 1.321639 -20.442659 -12.026070 -0.352472 -0.000001 -0.000001 -0.000000 -0.000001 -0.000001 -0.000000 -0.000001 -0.000001 -0.000000 0.983305 -13.571503 -5.911199 -13.259608 30.529494 -51.914273 0.002580 -94.057859 0.002594 -43.857218 -5.945040 -1.539589 -10.816492 -8.883196 25.256054 7.528210 18.833543 2.668079 -0.000000 0.000002 -0.000004 0.136079 -3.762290 2.170545 0.015244 0.458908 -3.805549 -0.000002 -0.000001 -0.000000 -0.111708 -1.700847 -3.247421 0.021635 0.546642 -4.534514 0.000001 -0.000001 -0.000002 -0.102247 0.703303 -14.794533 0.042359 0.763973 -6.343921 0.000001 -0.000001 -0.000002 2.621591 6.957571 -28.658418 0.011288 -3.476827 -5.301599 -0.000001 0.000003 0.000000 -0.000001 0.000002 0.000002 0.835699 -1.158577 15.079108 -16.583313 -11.774506 38.979268 -0.000019 86.909403 0.000057 -59.916113 16.642065 -2.765736 -7.919052 1.346151 -17.856891 3.615948 -5.592003 0.404319 0.000005 0.000002 -0.000001 0.097868 4.742274 -0.138817 0.166813 -1.516863 12.549854 0.000001 0.000001 0.000005 -0.034673 1.590173 1.630267 0.222589 -1.748677 14.507986 0.000002 0.000001 0.000002 0.171339 -1.801880 8.410887 0.686896 -3.018274 25.636695 -0.000000 -0.000000 0.000000 1.505555 -5.615703 18.809450 1.468583 -4.278721 37.873273 0.000002 -0.000002 -0.000000 0.000001 -0.000001 -0.000001 -0.000000 0.000000 0.000000 -0.000000 0.000000 0.000000 -0.000000 0.000000 0.000000 -0.000000 0.000000 0.000000 -0.000000 0.000000 0.000000 -0.000000 0.000000 0.000000 -0.000000 0.000000 0.000000 -0.000000 0.000000 0.000000 -0.000000 0.000000 0.000000 -0.000000 0.000000 0.000000 -0.000000 0.000000 0.000000 -0.000000 0.000000 -0.000000 
